<mxfile host="www.draw.io" modified="2020-01-27T22:33:31.107Z" agent="Mozilla/5.0 (Windows NT 10.0; Win64; x64) AppleWebKit/537.36 (KHTML, like Gecko) Chrome/79.0.3945.130 Safari/537.36" etag="chvyghWZqmJPcWw4tfki" version="12.5.8" type="github">
  <diagram id="KMuugsVYK9uRNoqzV4RM" name="Page-1">
    <mxGraphModel dx="1264" dy="533" grid="1" gridSize="10" guides="1" tooltips="1" connect="1" arrows="1" fold="1" page="1" pageScale="1" pageWidth="827" pageHeight="1169" math="0" shadow="0">
      <root>
        <mxCell id="0"/>
        <mxCell id="1" parent="0"/>
        <mxCell id="3g-0k3q-JD8yQT-S4bp5-1" value="clicking on edit contact button" style="rounded=1;whiteSpace=wrap;html=1;arcSize=40;fontColor=#000000;fillColor=#ffffc0;strokeColor=#ff0000;" vertex="1" parent="1">
          <mxGeometry x="200" y="30" width="120" height="40" as="geometry"/>
        </mxCell>
        <mxCell id="3g-0k3q-JD8yQT-S4bp5-2" value="" style="edgeStyle=orthogonalEdgeStyle;html=1;verticalAlign=bottom;endArrow=open;endSize=8;strokeColor=#ff0000;" edge="1" parent="1" source="3g-0k3q-JD8yQT-S4bp5-1">
          <mxGeometry relative="1" as="geometry">
            <mxPoint x="260" y="130" as="targetPoint"/>
          </mxGeometry>
        </mxCell>
        <mxCell id="3g-0k3q-JD8yQT-S4bp5-3" value="" style="ellipse;html=1;shape=startState;fillColor=#000000;strokeColor=#ff0000;" vertex="1" parent="1">
          <mxGeometry x="245" y="120" width="30" height="30" as="geometry"/>
        </mxCell>
        <mxCell id="3g-0k3q-JD8yQT-S4bp5-4" value="" style="edgeStyle=orthogonalEdgeStyle;html=1;verticalAlign=bottom;endArrow=open;endSize=8;strokeColor=#ff0000;" edge="1" parent="1" source="3g-0k3q-JD8yQT-S4bp5-3">
          <mxGeometry relative="1" as="geometry">
            <mxPoint x="260" y="220" as="targetPoint"/>
          </mxGeometry>
        </mxCell>
        <mxCell id="3g-0k3q-JD8yQT-S4bp5-5" value="show its information" style="rounded=1;whiteSpace=wrap;html=1;arcSize=40;fontColor=#000000;fillColor=#ffffc0;strokeColor=#ff0000;" vertex="1" parent="1">
          <mxGeometry x="200" y="220" width="120" height="40" as="geometry"/>
        </mxCell>
        <mxCell id="3g-0k3q-JD8yQT-S4bp5-6" value="" style="edgeStyle=orthogonalEdgeStyle;html=1;verticalAlign=bottom;endArrow=open;endSize=8;strokeColor=#ff0000;entryX=0.5;entryY=0;entryDx=0;entryDy=0;" edge="1" parent="1" source="3g-0k3q-JD8yQT-S4bp5-5" target="3g-0k3q-JD8yQT-S4bp5-7">
          <mxGeometry relative="1" as="geometry">
            <mxPoint x="460" y="380" as="targetPoint"/>
            <Array as="points">
              <mxPoint x="260" y="340"/>
              <mxPoint x="260" y="340"/>
            </Array>
          </mxGeometry>
        </mxCell>
        <mxCell id="3g-0k3q-JD8yQT-S4bp5-7" value="get new information" style="rounded=1;whiteSpace=wrap;html=1;arcSize=40;fontColor=#000000;fillColor=#ffffc0;strokeColor=#ff0000;" vertex="1" parent="1">
          <mxGeometry x="200" y="360" width="120" height="40" as="geometry"/>
        </mxCell>
        <mxCell id="3g-0k3q-JD8yQT-S4bp5-8" value="" style="ellipse;html=1;shape=endState;fillColor=#000000;strokeColor=#ff0000;" vertex="1" parent="1">
          <mxGeometry x="245" y="770" width="30" height="30" as="geometry"/>
        </mxCell>
        <mxCell id="3g-0k3q-JD8yQT-S4bp5-9" value="" style="edgeStyle=orthogonalEdgeStyle;html=1;verticalAlign=bottom;endArrow=open;endSize=8;strokeColor=#ff0000;entryX=0.5;entryY=0;entryDx=0;entryDy=0;" edge="1" parent="1" source="3g-0k3q-JD8yQT-S4bp5-7">
          <mxGeometry relative="1" as="geometry">
            <mxPoint x="260" y="470" as="targetPoint"/>
            <mxPoint x="260" y="400" as="sourcePoint"/>
          </mxGeometry>
        </mxCell>
        <mxCell id="3g-0k3q-JD8yQT-S4bp5-10" value="click on confirmation button" style="rounded=1;whiteSpace=wrap;html=1;arcSize=40;fontColor=#000000;fillColor=#ffffc0;strokeColor=#ff0000;" vertex="1" parent="1">
          <mxGeometry x="200" y="470" width="120" height="40" as="geometry"/>
        </mxCell>
        <mxCell id="3g-0k3q-JD8yQT-S4bp5-11" value="" style="edgeStyle=orthogonalEdgeStyle;html=1;verticalAlign=bottom;endArrow=open;endSize=8;strokeColor=#ff0000;" edge="1" parent="1" source="3g-0k3q-JD8yQT-S4bp5-10">
          <mxGeometry relative="1" as="geometry">
            <mxPoint x="260" y="570" as="targetPoint"/>
          </mxGeometry>
        </mxCell>
        <mxCell id="3g-0k3q-JD8yQT-S4bp5-12" value="is user sure?" style="rhombus;whiteSpace=wrap;html=1;fillColor=#ffffc0;strokeColor=#ff0000;" vertex="1" parent="1">
          <mxGeometry x="220" y="570" width="80" height="40" as="geometry"/>
        </mxCell>
        <mxCell id="3g-0k3q-JD8yQT-S4bp5-13" value="no" style="edgeStyle=orthogonalEdgeStyle;html=1;align=left;verticalAlign=bottom;endArrow=open;endSize=8;strokeColor=#ff0000;entryX=1;entryY=0.5;entryDx=0;entryDy=0;" edge="1" parent="1" source="3g-0k3q-JD8yQT-S4bp5-12" target="3g-0k3q-JD8yQT-S4bp5-7">
          <mxGeometry x="-1" relative="1" as="geometry">
            <mxPoint x="400" y="590" as="targetPoint"/>
            <Array as="points">
              <mxPoint x="360" y="590"/>
              <mxPoint x="360" y="380"/>
            </Array>
          </mxGeometry>
        </mxCell>
        <mxCell id="3g-0k3q-JD8yQT-S4bp5-14" value="yes" style="edgeStyle=orthogonalEdgeStyle;html=1;align=left;verticalAlign=top;endArrow=open;endSize=8;strokeColor=#ff0000;" edge="1" parent="1" source="3g-0k3q-JD8yQT-S4bp5-12">
          <mxGeometry x="-1" relative="1" as="geometry">
            <mxPoint x="260" y="670" as="targetPoint"/>
          </mxGeometry>
        </mxCell>
        <mxCell id="3g-0k3q-JD8yQT-S4bp5-15" value="update contact" style="rounded=1;whiteSpace=wrap;html=1;arcSize=40;fontColor=#000000;fillColor=#ffffc0;strokeColor=#ff0000;" vertex="1" parent="1">
          <mxGeometry x="200" y="670" width="120" height="40" as="geometry"/>
        </mxCell>
        <mxCell id="3g-0k3q-JD8yQT-S4bp5-16" value="" style="edgeStyle=orthogonalEdgeStyle;html=1;verticalAlign=bottom;endArrow=open;endSize=8;strokeColor=#ff0000;" edge="1" parent="1" source="3g-0k3q-JD8yQT-S4bp5-15">
          <mxGeometry relative="1" as="geometry">
            <mxPoint x="260" y="770" as="targetPoint"/>
          </mxGeometry>
        </mxCell>
      </root>
    </mxGraphModel>
  </diagram>
</mxfile>
